<?xml version="1.0" encoding="UTF-8" standalone="no"?>
<svg
   width="255.16167"
   height="254.95058"
   preserveAspectRatio="xMidYMid"
   class="iconify iconify--logos"
   role="img"
   aria-hidden="true"
   version="1.1"
   id="svg2"
   xmlns="http://www.w3.org/2000/svg"
   xmlns:svg="http://www.w3.org/2000/svg">
  <defs
     id="defs2" />
  <g
     id="g2"
     transform="translate(0.21692598,-2.0862908)">
    <title
       id="title2">Layer 1</title>
    <path
       fill-rule="evenodd"
       clip-rule="evenodd"
       d="m 127.36392,82.597026 c -25.95935,0 -47.003451,21.026714 -47.003451,46.964574 0,25.93787 21.044101,46.96457 47.003451,46.96457 25.95934,0 47.00348,-21.0267 47.00348,-46.96457 0,-25.93786 -21.04414,-46.964574 -47.00348,-46.964574 z M 66.930882,129.5616 c 0,-33.348606 27.056824,-60.383021 60.433038,-60.383021 33.3765,0 60.43299,27.034415 60.43299,60.383021 0,33.34889 -27.05649,60.38301 -60.43299,60.38301 -33.376214,0 -60.433038,-27.03412 -60.433038,-60.38301 z"
       fill="#47495f"
       id="path1"
       style="fill:#2ca02c;stroke-width:13.424" />
    <path
       fill-rule="evenodd"
       clip-rule="evenodd"
       d="m 122.61528,4.0514584 c 2.62276,-2.6202235 6.87452,-2.6202235 9.49737,0 l 26.85911,26.8369026 c 2.6214,2.620077 2.6214,6.868098 0,9.488176 -2.62283,2.620223 -6.87461,2.620223 -9.49745,0 L 127.36392,18.283872 105.25344,40.376537 c -2.62276,2.620223 -6.874425,2.620223 -9.496656,0 -2.622394,-2.620078 -2.622394,-6.868099 0,-9.488176 z"
       fill="#47495f"
       id="path2"
       style="fill:#2ca02c;stroke-width:13.424" />
    <path
       fill-rule="evenodd"
       clip-rule="evenodd"
       d="m 252.97864,124.81685 c 2.62148,2.62061 2.62148,6.86889 0,9.48952 l -26.85912,26.8369 c -2.62284,2.61926 -6.87461,2.61926 -9.49737,0 -2.62148,-2.62062 -2.62148,-6.86891 0,-9.48954 L 238.7339,129.5616 216.62215,107.46946 c -2.62148,-2.62062 -2.62148,-6.86877 0,-9.48886 2.62276,-2.620211 6.87453,-2.620211 9.49737,0 z"
       fill="#47495f"
       id="path3"
       style="fill:#2ca02c;stroke-width:13.424" />
    <path
       fill-rule="evenodd"
       clip-rule="evenodd"
       d="m 1.7498702,134.30637 c -2.62239491,-2.62063 -2.62239491,-6.86891 0,-9.48952 L 28.60899,97.9806 c 2.62225,-2.620211 6.873779,-2.620211 9.49603,0 2.622395,2.62009 2.622395,6.86824 0,9.48886 L 15.994061,129.5616 38.10502,151.65373 c 2.622395,2.62063 2.622395,6.86892 0,9.48954 -2.622251,2.61926 -6.87378,2.61926 -9.49603,0 z"
       fill="#47495f"
       id="path4"
       style="fill:#2ca02c;stroke-width:13.424" />
    <path
       fill-rule="evenodd"
       clip-rule="evenodd"
       d="m 132.11265,255.07241 c -2.62285,2.61929 -6.87461,2.61929 -9.49737,0 L 95.756784,228.23549 c -2.622394,-2.62062 -2.622394,-6.86888 0,-9.4895 2.622231,-2.6193 6.873896,-2.6193 9.496656,0 l 22.11048,22.09346 22.11039,-22.09346 c 2.62284,-2.6193 6.87462,-2.6193 9.49745,0 2.6214,2.62062 2.6214,6.86888 0,9.4895 z"
       fill="#47495f"
       id="path5"
       style="fill:#2ca02c;stroke-width:13.424" />
  </g>
</svg>
