<svg width="46" height="40" viewBox="0 0 46 40" fill="none" xmlns="http://www.w3.org/2000/svg">
<path d="M37.2976 7.36953C36.717 6.26721 36.0239 5.25776 35.2964 4.27033C34.9943 3.86017 34.7095 3.43454 34.5532 2.94325C34.4899 2.74423 34.459 2.5094 34.6309 2.35627C34.8415 2.16863 35.02 2.36597 35.1786 2.48254C36.8794 3.73316 38.328 5.19137 38.9834 7.26807C39.1841 7.90373 39.335 8.56475 38.7523 9.11424C38.6469 9.21365 38.6549 9.31437 38.72 9.41658C39.3271 10.3693 39.8151 11.3847 40.2957 12.4112C40.1967 11.3568 39.9531 10.338 39.6957 9.32128C39.5664 8.81021 39.4562 8.29374 39.3542 7.77633C39.2799 7.4005 39.2956 7.02224 39.4413 6.66207C39.6293 6.19689 39.9479 6.13608 40.223 6.56004C41.3233 8.25494 42.2148 10.0334 42.1949 12.1263C42.1863 13.0366 42.0833 13.9141 41.1464 14.403C41.009 14.4746 40.9801 14.591 41.0183 14.7385C41.291 15.7937 41.4831 16.8641 41.6224 17.9523C41.881 16.8529 42.0397 15.7459 42.1322 14.6305C42.1904 13.9305 42.2993 13.2449 42.5728 12.5951C42.683 12.333 42.8354 12.0928 43.0821 11.9305C43.4852 11.6654 43.8015 11.7346 43.8937 12.2078C44.3259 14.43 44.5818 16.6535 43.5376 18.7991C43.2023 19.4883 42.7505 20.0486 41.9212 20.1469C41.7069 20.1722 41.6435 20.2994 41.632 20.493C41.5695 21.5465 41.4331 22.5903 41.1518 23.7043C41.4089 23.5495 41.4669 23.3557 41.5532 23.1914C42.1065 22.1396 42.6492 21.0824 43.2071 20.0333C43.483 19.5146 43.8109 19.0311 44.2889 18.6696C44.5528 18.47 44.8397 18.3555 45.1797 18.3675C45.4688 18.3777 45.6013 18.5176 45.5757 18.7931C45.3857 20.8443 44.9873 22.8355 43.6934 24.5153C42.973 25.4503 42.0878 26.1313 40.7934 25.879C40.5647 25.8344 40.4813 25.9534 40.4177 26.1211C39.9977 27.2309 39.4933 28.3005 38.9216 29.3566C40.0404 28.3556 41.153 27.3474 42.2801 26.3561C42.8947 25.8155 43.5637 25.3353 44.4051 25.2463C45.1238 25.1721 45.7324 25.6244 45.5453 26.1707C45.3047 26.8735 44.5439 27.6488 44.1283 28.2893C43.5434 29.1906 42.7763 29.9971 41.8651 30.5716C40.6787 31.3197 39.4249 31.7946 38.0387 31.0413C37.8898 30.9603 37.7555 30.9418 37.6393 31.0952C37.027 31.9043 36.3217 32.6321 35.6602 33.4349C36.5094 33.0976 37.3571 32.7559 38.2086 32.4243C39.0524 32.0957 39.8992 31.7784 40.8096 31.6741C41.3854 31.6081 41.9433 31.6678 42.4689 31.9048C43.0756 32.1785 43.1118 32.3838 42.6298 32.841C41.1172 34.2757 39.3516 35.2392 37.3012 35.6623C36.4439 35.8393 35.5895 35.9396 34.73 35.6628C34.4745 35.5806 34.2083 35.5004 34.032 35.3068C33.7006 34.943 33.4171 35.0262 33.0571 35.2726C32.4214 35.7078 31.7369 36.067 31.0604 36.4874C31.847 36.3953 32.633 36.2976 33.4203 36.2127C34.3974 36.1073 35.3767 36.0543 36.3441 36.2849C36.8662 36.4093 37.339 36.6266 37.6671 37.0891C37.8708 37.3764 37.8456 37.5536 37.4955 37.6789C36.1391 38.1646 34.7511 38.5214 33.3096 38.5888C32.1612 38.6425 31.0065 38.6609 29.876 38.3731C29.3775 38.2463 28.8919 38.0842 28.5566 37.661C28.3854 37.4448 28.1757 37.4465 27.945 37.4986C27.4315 37.614 26.9186 37.7323 26.3959 37.9169C27.0409 38.0085 27.6872 38.0909 28.3301 38.1946C28.963 38.2965 29.5961 38.4097 30.1853 38.6785C30.5527 38.8462 30.8696 39.0875 31.0727 39.4423C31.29 39.822 31.1714 40.0026 30.75 40C28.8037 39.988 26.9363 39.5531 25.1047 38.94C24.4084 38.7068 23.6931 38.5184 23.0401 38.1696C22.8552 38.071 22.6991 38.0827 22.5076 38.1637C20.5193 39.0038 18.4722 39.6435 16.3209 39.8991C15.7979 39.9612 15.2676 39.9617 14.7407 39.9901C14.3526 40.011 14.3339 39.7715 14.4417 39.5104C14.6268 39.0627 15.0136 38.8199 15.442 38.6453C16.5899 38.1779 17.8188 38.1163 19.1172 37.9305C18.4816 37.7996 17.9315 37.6845 17.3805 37.5743C17.2516 37.5484 17.1174 37.5249 17.0105 37.6405C16.2748 38.4362 15.2678 38.5009 14.299 38.5779C12.263 38.74 10.2717 38.4616 8.34087 37.7862C7.59629 37.5258 7.54965 37.2796 8.17431 36.7767C8.98138 36.1269 9.95668 36.1025 10.9202 36.1409C11.8724 36.1789 12.8214 36.2938 13.7992 36.2981C13.171 35.9394 12.5418 35.5819 11.9148 35.2213C11.7452 35.124 11.635 35.2299 11.51 35.3174C10.8759 35.7613 10.1475 35.8926 9.40552 35.8272C6.86644 35.6026 4.69572 34.5573 2.87306 32.7847C2.43921 32.3626 2.47428 32.1885 3.02228 31.9259C3.81517 31.5458 4.6351 31.6131 5.45691 31.8075C6.6885 32.0988 7.8395 32.6213 9.16547 33.145C8.55723 32.4599 8.05419 31.8951 7.55376 31.3283C7.43756 31.1968 7.30905 31.1871 7.14659 31.2358C5.53786 31.7168 4.22402 31.07 3.03272 30.0934C1.70097 29.0017 0.863126 27.552 0.213666 25.9801C0.0191262 25.5093 0.214228 25.3015 0.65945 25.2439C1.24717 25.1676 1.77576 25.3485 2.27414 25.6443C3.34047 26.2772 4.16601 27.1971 5.08742 28.0027C5.19802 28.0995 5.31199 28.1926 5.51044 28.2381C5.21164 27.5254 4.91563 26.8114 4.61123 26.1009C4.55322 25.9655 4.41781 25.9304 4.27773 25.9304C3.10994 25.9301 2.35192 25.2271 1.72932 24.3683C0.801576 23.0888 0.347962 21.6135 0.122273 20.0642C0.0599757 19.6364 0.0357259 19.2025 0.00215241 18.7709C-0.0204164 18.4807 0.1357 18.3725 0.413801 18.368C0.939039 18.3592 1.3048 18.6553 1.62394 19.0087C2.25139 19.7035 2.60764 20.5678 3.05062 21.3771C3.21812 21.6832 3.37349 21.9958 3.62529 22.2711C3.58239 21.6577 3.53744 21.0446 3.49771 20.4309C3.48652 20.2601 3.40296 20.1455 3.25076 20.0846C2.348 19.7223 2.01264 18.9132 1.70172 18.0966C1.12481 16.5819 1.28485 15.015 1.41466 13.4545C1.44413 13.0992 1.51557 12.7465 1.58216 12.3955C1.63233 12.1317 1.70768 11.8486 2.01824 11.7992C2.30249 11.7539 2.52464 11.9338 2.69381 12.1459C3.16235 12.7336 3.26531 13.4454 3.35167 14.1605C3.43411 14.8435 3.45033 15.5363 3.66166 16.3669C3.82804 15.6544 3.95897 15.0963 4.08842 14.5377C4.11919 14.4043 4.11117 14.2857 4.01083 14.17C3.16664 13.1951 3.23677 12.0407 3.43709 10.8953C3.704 9.36809 4.37883 7.9968 5.21481 6.70329C5.34388 6.50371 5.4709 6.2327 5.76672 6.29854C6.06963 6.36606 6.13416 6.66114 6.17408 6.92152C6.29475 7.70788 6.07541 8.45545 5.88404 9.20488C5.75534 9.70942 5.63056 10.2151 5.57012 10.7431C5.86762 10.2451 6.16438 9.74673 6.46318 9.24965C6.54469 9.11405 6.59207 8.97435 6.52399 8.82084C6.25633 8.21671 6.41226 7.62637 6.61855 7.05712C7.34971 5.03916 8.79113 3.60222 10.4965 2.38928C10.6235 2.29882 10.7695 2.21414 10.9038 2.3503C11.0456 2.49392 11.0765 2.68678 11.0157 2.87909C10.8658 3.35266 10.5964 3.76412 10.3159 4.167C9.89737 4.76815 9.47174 5.36427 9.10709 6.0141C9.51949 5.64516 9.93151 5.27586 10.3445 4.90748C10.4463 4.81665 10.5276 4.71406 10.5263 4.57044C10.5203 3.94691 10.9048 3.52276 11.2832 3.09992C12.6006 1.62773 14.3166 0.831477 16.1543 0.246925C16.3461 0.185933 16.5873 0.0576041 16.7301 0.267252C16.9079 0.528006 16.6156 0.654656 16.4841 0.820099C16.4502 0.862998 16.4162 0.905893 16.3105 1.03981C17.3453 0.659688 18.2678 0.252706 19.2676 0.106848C19.2862 0.10405 19.3045 0.0936019 19.3226 0.094348C22.3457 0.213161 25.4249 -0.481996 28.3736 0.71583C28.683 0.841544 28.9884 0.977145 29.3053 1.11237C29.3053 1.07227 29.3122 1.05026 29.3043 1.04075C29.1113 0.808904 28.6144 0.672186 28.7985 0.326006C29.0044 -0.0612082 29.4174 0.254569 29.7059 0.351746C31.478 0.948234 33.1328 1.75437 34.3601 3.22937C34.7501 3.69809 35.234 4.16345 34.901 4.88677C34.8473 5.00335 34.9516 5.09717 35.0407 5.17048C35.8568 5.84064 36.5782 6.60723 37.2976 7.36953ZM15.1608 35.8424C14.5165 35.2111 13.9348 34.5392 13.5651 33.7227C13.0173 32.5127 12.8621 31.2891 13.6718 30.1182C13.9973 29.6474 14.1573 29.6716 14.3776 30.2036C15.0433 31.8116 15.8334 33.3528 16.7775 34.8162C17.1071 35.3273 17.344 35.8833 17.3865 36.5025C17.3977 36.6659 17.4438 36.7991 17.6088 36.8608C18.3008 37.1197 19.0053 37.3249 19.7532 37.3622C18.7419 36.8782 17.8571 36.2532 17.2531 35.2982C16.9265 34.7815 16.6766 34.2302 16.8691 33.5908C16.9223 33.4143 16.9463 33.1803 17.1574 33.143C17.3423 33.1101 17.4342 33.3185 17.5318 33.4461C18.8496 35.1697 20.5154 36.4725 22.393 37.5327C22.6818 37.6957 22.8689 37.6924 23.1552 37.5301C25.0467 36.4576 26.732 35.1512 28.0513 33.4009C28.3277 33.0342 28.5098 33.0788 28.6532 33.5227C28.8483 34.1268 28.672 34.6763 28.357 35.1937C27.801 36.1068 26.9941 36.7392 26.0557 37.2356C26.2991 37.2025 26.5263 37.1339 26.7567 37.0793C27.5453 36.8926 28.3708 36.7583 28.3488 35.6544C28.3462 35.5183 28.4531 35.373 28.5288 35.2435C28.8621 34.6739 29.2047 34.1097 29.5403 33.5412C30.1748 32.4663 30.6803 31.3289 31.1697 30.1831C31.3829 29.6838 31.5183 29.669 31.8542 30.0937C32.1031 30.4084 32.2661 30.7693 32.3431 31.1651C32.6124 32.5508 32.1338 33.7238 31.3079 34.7978C31.1902 34.9507 31.0746 35.1051 30.958 35.2588C31.4639 35.0574 31.8779 34.7582 32.325 34.5215C32.8594 34.2386 33.0472 33.8825 32.7986 33.2963C32.7079 33.0825 32.7247 32.8128 32.7316 32.5698C32.7881 30.5791 33.2604 28.6523 33.6407 26.7112C33.7118 26.3488 33.9015 26.3563 34.1697 26.507C35.2515 27.1147 35.6952 28.0842 35.7264 29.2753C35.7517 30.248 35.4791 31.1657 35.0724 32.1911C35.754 31.6139 36.2158 31.0267 36.6782 30.4403C36.8337 30.243 36.7882 30.0609 36.6441 29.8766C36.1281 29.2169 35.9053 28.4425 35.7794 27.6321C35.5837 26.3723 35.6872 25.1144 35.7814 23.8534C35.8599 22.8008 36.1615 22.6248 37.0829 23.1754C37.2745 23.2899 37.455 23.4391 37.6044 23.6049C38.2315 24.3005 38.4346 25.1536 38.463 26.0599C38.4777 26.5314 38.4656 27.0037 38.4656 27.4756C38.8379 26.9248 39.086 26.3565 39.3365 25.7892C39.4396 25.5555 39.4236 25.3614 39.2059 25.1888C38.4412 24.5828 38.0696 23.7282 37.8555 22.8236C37.578 21.6511 37.3804 20.4591 37.1712 19.2715C37.0824 18.7679 37.3021 18.5532 37.81 18.6243C38.6314 18.7392 39.152 19.2667 39.5319 19.957C39.9262 20.673 40.1487 21.4501 40.3228 22.4153C40.4587 21.6463 40.5582 21.0375 40.5742 20.4158C40.5796 20.2062 40.5074 20.0514 40.3185 19.9519C39.492 19.517 38.9996 18.7817 38.5911 17.9847C38.0836 16.9947 37.5998 15.9925 37.1104 14.9931C36.9785 14.7238 36.7936 14.4291 37.0232 14.1486C37.2383 13.8858 37.5752 13.9408 37.8734 13.9764C38.1784 14.013 38.446 14.1564 38.6932 14.3381C39.2051 14.7147 39.5677 15.219 39.9018 15.7474C40.0609 15.999 40.2111 16.2564 40.4498 16.6511C40.4084 15.9405 40.2696 15.4317 40.1465 14.9204C40.1042 14.7443 40.016 14.6259 39.814 14.5873C39.1524 14.4608 38.6611 14.0408 38.2032 13.5873C37.1404 12.5348 36.3348 11.267 35.3502 10.1476C35.0588 9.8163 35.2133 9.49549 35.6648 9.43953C36.4143 9.34683 37.0238 9.68443 37.583 10.1261C37.9448 10.412 38.2834 10.7273 38.6855 11.0753C38.2826 9.96887 38.1235 9.82413 37.1555 9.51805C36.8707 9.42796 36.5898 9.30039 36.3356 9.14371C34.9516 8.28964 33.7814 7.1446 32.4244 6.25173C32.2433 6.13254 32.117 5.95702 32.2131 5.7207C32.3077 5.48867 32.5192 5.47469 32.7335 5.46368C33.0047 5.44969 33.2582 5.52672 33.5089 5.60562C34.1369 5.80333 34.716 6.11613 35.3192 6.38639C34.9105 6.03685 34.7028 5.40735 34.0337 5.43011C33.4673 5.44951 32.9523 5.28556 32.447 5.07218C31.0916 4.50012 29.8139 3.75796 28.434 3.23627C28.2404 3.16315 27.9452 3.07791 28.0032 2.79049C28.0662 2.47825 28.3702 2.52843 28.6103 2.51332C29.2303 2.47397 29.8022 2.73509 30.5202 2.8636C30.0582 2.54839 29.6774 2.43815 29.2435 2.46725C28.8875 2.49112 28.5303 2.4859 28.1735 2.40868C26.5707 2.0612 24.9646 1.72863 23.3609 1.38506C23.0065 1.30915 22.66 1.27893 22.2992 1.36007C21.0302 1.64619 19.7603 1.93007 18.4864 2.19288C17.6224 2.37119 16.7602 2.62001 15.8608 2.39488C15.7615 2.37007 15.6317 2.40085 15.5342 2.44543C14.9903 2.69368 14.452 2.95425 13.9118 3.21053C14.421 3.12715 14.8948 2.95966 15.3725 2.80504C15.894 2.63605 16.4222 2.4956 16.9784 2.51332C17.2052 2.5206 17.4816 2.49784 17.5432 2.77221C17.6066 3.05516 17.3259 3.15998 17.1304 3.23235C15.6582 3.7768 14.3039 4.57939 12.8535 5.16935C12.2852 5.40064 11.7048 5.54892 11.0961 5.3223C10.9753 5.27735 10.8788 5.29283 10.7841 5.3749C10.0647 5.99787 9.34491 6.6201 8.80904 7.42363C9.65098 6.73929 10.5716 6.19521 11.568 5.78133C11.9855 5.60786 12.4074 5.44149 12.8766 5.46349C13.1055 5.47431 13.2864 5.54108 13.3597 5.77442C13.4295 5.99601 13.2952 6.14392 13.135 6.24762C11.7553 7.14124 10.5746 8.30567 9.1707 9.16404C8.66728 9.47179 8.13384 9.72509 7.51385 9.54174C7.2889 9.47534 7.15162 9.57084 7.04475 9.74933C6.50925 10.6437 6.03549 11.567 5.7061 12.5604C6.46971 11.4608 7.35474 10.4947 8.48542 9.77004C8.91516 9.49455 9.38389 9.37182 9.8888 9.44214C10.3239 9.50276 10.4819 9.79653 10.2193 10.1041C9.19084 11.3086 8.32297 12.6486 7.16897 13.7457C6.65623 14.2331 6.09817 14.6513 5.32728 14.6013C5.13927 14.5891 4.99565 14.6634 4.94939 14.8656C4.71028 15.9127 4.50305 16.9639 4.52711 18.0472C4.98352 16.8719 5.49944 15.7415 6.35053 14.8005C6.80582 14.2972 7.32453 13.8975 8.06109 13.9628C8.5729 14.0081 8.77416 14.2713 8.54511 14.7206C7.8686 16.047 7.35903 17.4606 6.52604 18.7039C6.10376 19.3344 5.60799 19.9135 4.80726 20.0913C4.5189 20.1552 4.46612 20.3578 4.49112 20.6046C4.60116 21.6882 4.75634 22.7639 5.07585 23.9099C5.21238 22.4347 5.34444 21.0636 6.08194 19.846C6.4242 19.2808 6.86606 18.8272 7.53119 18.6582C8.2187 18.4835 8.45987 18.7054 8.34125 19.3987C8.18252 20.3272 8.04207 21.2598 7.8479 22.181C7.6127 23.2974 7.27566 24.3732 6.38018 25.1769C6.16046 25.3741 5.71636 25.3703 5.70759 25.704C5.70031 25.9793 5.91146 26.2598 6.02467 26.5387C6.05303 26.6086 6.06963 26.684 6.10357 26.7506C6.43763 27.4058 6.73904 28.0806 7.23854 28.6568C7.02274 27.8186 7.22698 26.9326 6.87259 26.1283C6.8282 26.0276 6.84853 26.0095 6.91456 25.9692C7.14715 25.8271 7.10723 25.582 7.14902 25.3642C7.35754 24.274 7.78243 23.3475 8.94482 22.9646C9.39825 22.8152 9.6631 22.8904 9.7185 23.4257C9.83694 24.5709 9.95351 25.718 9.86137 26.8673C9.76252 28.1036 9.5193 29.3018 8.58559 30.2299C8.37612 30.4381 8.51881 30.6138 8.6587 30.7702C9.07352 31.2341 9.48573 31.7014 9.92143 32.1453C10.1531 32.3814 10.3452 32.6849 10.7979 32.8464C10.1736 31.5781 9.76551 30.3802 9.84497 29.052C9.90708 28.0144 10.3269 27.2064 11.1832 26.6263C11.7286 26.257 11.8292 26.2943 11.95 26.9272C12.1798 28.1304 12.4107 29.3337 12.6157 30.5414C12.8144 31.7116 13.0699 32.8895 12.5133 34.0412C12.4158 34.243 12.546 34.3581 12.6948 34.4585C13.4756 34.9852 14.2714 35.486 15.1608 35.8424ZM29.9051 1.47851C29.9622 1.77377 29.8387 2.04758 30.1806 2.18579C31.1346 2.57151 32.0327 3.07157 32.9318 3.57312C32.0281 2.75616 31.0371 2.07146 29.9051 1.47851ZM27.0851 1.12226C24.878 0.453401 22.6296 0.237785 20.34 0.701099C21.4653 0.553562 22.5917 0.582096 23.7207 0.664351C24.8503 0.746606 25.9688 0.890229 27.0851 1.12226Z" fill="url(#paint0_linear_2222_1241)"/>
<path d="M21.1867 6.59395C21.4186 6.15843 21.3369 5.7839 21.2142 5.40601C20.9986 4.74182 21.3537 4.33819 22.0371 4.46222C22.0973 4.47323 22.157 4.48684 22.265 4.50922C22.0313 3.80101 22.6934 3.43488 22.8384 2.86133C22.9676 3.43114 23.649 3.78441 23.4061 4.504C23.4852 4.49207 23.5238 4.49151 23.5593 4.48031C24.1433 4.29585 24.7786 4.68549 24.454 5.45395C24.3057 5.80516 24.2748 6.16831 24.4583 6.53128C24.1255 6.48745 23.9064 6.2433 23.8314 5.85142C23.8118 5.74865 23.8176 5.62704 23.7624 5.54888C23.7033 5.46514 23.5874 5.37952 23.4932 5.37598C23.4211 5.37337 23.3125 5.48248 23.2745 5.5666C23.0269 6.11143 23.3093 7.3072 23.7684 7.71027C24.1688 8.06186 24.6924 8.08946 25.0949 7.73843C25.3038 7.5562 25.458 7.31168 25.6069 7.1315C25.4937 6.95486 25.386 6.84519 25.3484 6.71519C25.2881 6.50647 25.3851 6.33451 25.591 6.2599C25.7955 6.18566 25.9784 6.25187 26.0734 6.44902C26.1627 6.63442 26.159 6.85918 25.9577 6.94946C25.7121 7.05969 25.7499 7.2283 25.7678 7.41818C25.865 8.44777 26.3004 8.66413 27.1899 8.13591C27.3881 8.01821 27.5295 7.90388 27.4463 7.64741C27.4284 7.59183 27.4508 7.5217 27.4601 7.45922C27.5474 6.86907 27.3389 6.66446 26.7348 6.7469C26.7064 6.75082 26.676 6.74093 26.6434 6.7372C27.0237 6.17167 27.4917 6.15806 28.148 6.72862C28.1933 5.76618 29.1078 5.71022 29.637 5.20084C28.6281 7.08245 27.6373 8.93048 26.6437 10.7835C25.428 10.2492 24.1268 10.2328 22.83 10.2329C21.5413 10.2331 20.2484 10.2505 19.0334 10.7837C18.0469 8.94559 17.0509 7.08972 16.0293 5.18629C16.5521 5.71302 17.4787 5.74921 17.5185 6.73962C17.8167 6.46619 18.089 6.21401 18.4615 6.31996C18.6773 6.38132 18.8635 6.54639 19.063 6.66483C19.0485 6.69355 19.0338 6.72228 19.0192 6.751C18.9386 6.73888 18.8582 6.72134 18.7773 6.71538C18.3768 6.68591 18.1379 6.94759 18.1892 7.34525C18.2131 7.53009 18.2174 7.71754 18.2366 7.99061C18.4511 8.0945 18.7219 8.2577 19.0144 8.35936C19.4273 8.50316 19.6991 8.35301 19.8171 7.9395C19.8776 7.72799 19.9108 7.50472 19.9207 7.285C19.9248 7.19398 19.8584 7.0707 19.7845 7.01045C19.5472 6.81703 19.4821 6.58686 19.6385 6.38673C19.7834 6.20133 20.0536 6.18193 20.2267 6.34476C20.4052 6.51263 20.378 6.77637 20.1605 6.97911C20.132 7.00579 20.101 7.02984 20.0579 7.0664C20.3487 7.54949 20.635 8.03146 21.2862 7.95872C21.5188 7.93279 21.8108 7.82255 21.9457 7.64965C22.3926 7.07592 22.6451 6.41937 22.42 5.67627C22.3831 5.5541 22.2326 5.46644 22.1344 5.36273C22.0419 5.48826 21.8944 5.60279 21.8672 5.741C21.7795 6.18697 21.657 6.38393 21.1867 6.59395Z" fill="url(#paint1_linear_2222_1241)"/>
<path d="M22.0427 32.6803C21.8734 32.3778 21.7042 32.0753 21.5311 31.766C21.5214 32.2155 21.707 32.6124 21.8799 33.0127C21.8682 33.0213 21.8566 33.03 21.8448 33.0386C21.6956 32.8676 21.5343 32.7057 21.3994 32.524C20.9574 31.9285 20.6847 31.2499 20.4637 30.5488C20.3667 30.2408 20.2798 29.9297 20.1768 29.5811C20.1753 30.7411 20.5336 31.772 20.9283 32.8154C20.747 32.6641 20.5582 32.5207 20.3855 32.3601C19.7364 31.7563 19.2705 31.0255 18.9238 30.2149C18.4978 29.2191 18.2775 28.1716 18.1712 27.1C18.1178 26.5619 18.1089 26.0194 18.0807 25.4939C17.8843 25.7381 17.8254 27.7075 17.9666 28.5726C18.1355 29.6084 18.3549 30.6256 18.835 31.5967C18.4323 31.4183 18.1247 31.1552 17.8505 30.8509C17.4484 30.4046 17.1488 29.8943 16.8961 29.3495C16.3787 28.2341 16.0575 27.0612 15.827 25.8597C15.5422 24.3752 15.3764 22.8787 15.3847 21.3651C15.3849 21.3383 15.378 21.3116 15.3566 21.2855C14.8192 22.891 14.9655 24.5001 15.3101 26.1229C15.2704 26.0356 15.2311 25.9481 15.1911 25.8608C15.1482 25.767 15.102 25.6743 15.0621 25.5792C14.7019 24.7219 14.4533 23.8326 14.3192 22.9132C14.164 21.8497 14.1498 20.7837 14.2973 19.717C14.3818 19.1056 14.5029 18.5041 14.7457 17.9328C14.77 17.8755 14.7993 17.8203 14.841 17.7329C15.2605 18.4498 15.8811 18.7945 16.6831 18.8316C16.6374 18.8089 16.591 18.7876 16.5458 18.7636C15.5397 18.2253 14.9572 17.4203 14.9612 16.2463C14.9615 16.1525 14.9686 16.0585 14.9632 15.9652C14.9489 15.713 15.0686 15.5446 15.2697 15.4042C15.6867 15.1126 16.1515 14.9491 16.6467 14.8655C17.1587 14.7791 17.6741 14.7405 18.1932 14.7995C18.2105 14.8015 18.2286 14.7965 18.2534 14.7941C18.0475 14.6189 17.5118 14.4529 16.7648 14.5117C16.9722 14.2923 17.1531 14.0875 17.3486 13.8971C17.7649 13.4916 18.2292 13.1525 18.7734 12.9373C19.457 12.6668 20.1481 12.6713 20.8419 12.9005C20.9719 12.9434 21.1017 12.9874 21.2387 13.0331C20.9876 12.6509 20.0992 12.244 18.7898 12.5418C18.9693 12.4245 19.1424 12.2958 19.3294 12.1919C20.2706 11.6691 21.2487 11.6727 22.2431 12.0129C22.4743 12.0919 22.6946 12.2029 22.9233 12.2906C22.9746 12.3104 23.0494 12.3135 23.0973 12.2908C23.6073 12.0481 24.134 11.8609 24.6984 11.7995C25.6303 11.698 26.4633 11.9446 27.1968 12.5273C27.2078 12.5361 27.2138 12.5508 27.2278 12.5711C26.3396 12.3786 25.4877 12.348 24.771 13.0311C24.9668 12.971 25.1615 12.9078 25.3583 12.8515C26.2475 12.5972 27.0749 12.7545 27.8467 13.2411C28.3684 13.5699 28.8098 13.9911 29.2032 14.4637C29.212 14.4742 29.2166 14.4882 29.2306 14.5147C28.7144 14.466 28.2257 14.5208 27.7721 14.7957C27.8064 14.7957 27.8409 14.7982 27.875 14.7954C28.5698 14.7366 29.2534 14.7982 29.9217 14.9979C30.2638 15.1001 30.5786 15.2566 30.8556 15.4896C30.9692 15.5851 31.0328 15.6839 31.0458 15.8346C31.1091 16.563 31.0091 17.2515 30.5693 17.8588C30.283 18.2542 29.9012 18.5373 29.4739 18.7636C29.436 18.7835 29.3983 18.804 29.3472 18.8316C29.5813 18.8669 30.0948 18.7173 30.4038 18.5438C30.7358 18.3575 30.9595 18.0664 31.202 17.7185C31.3111 18.0315 31.4248 18.3019 31.5 18.5824C31.8141 19.7562 31.8898 20.954 31.7899 22.1593C31.6821 23.459 31.3765 24.7132 30.8119 25.8966C30.7765 25.9709 30.7476 26.0481 30.7034 26.1204C30.8778 25.3184 31.0039 24.5128 31.0154 23.691C31.0268 22.8675 30.9545 22.0584 30.659 21.2426C30.6473 21.303 30.6368 21.331 30.637 21.3588C30.6493 22.6094 30.5344 23.8501 30.3281 25.0817C30.2315 25.6588 30.1069 26.2314 29.9808 26.8031C29.7768 27.7275 29.4893 28.6254 29.0727 29.4774C28.7366 30.1646 28.3277 30.8002 27.7124 31.2762C27.5581 31.3956 27.3871 31.4929 27.2099 31.5886C27.6661 30.6335 27.9039 29.6244 28.0397 28.5896C28.1757 27.5514 28.2063 26.5138 27.9642 25.4863C27.9509 25.4863 27.9377 25.4865 27.9244 25.4865C27.9244 25.625 27.9267 25.7636 27.9241 25.9022C27.9075 26.7615 27.8288 27.6156 27.6465 28.4557C27.4199 29.4998 27.0687 30.4971 26.4625 31.39C26.1165 31.8997 25.7036 32.3461 25.213 32.7199C25.1783 32.7464 25.1392 32.7667 25.0864 32.7833C25.4809 31.7742 25.8433 30.7597 25.8434 29.6833C25.6424 30.2601 25.4562 30.8675 25.2186 31.454C24.9787 32.046 24.6615 32.5994 24.1534 33.0181C24.3233 32.6139 24.4936 32.2125 24.4695 31.7585C24.3668 31.9738 24.2674 32.1909 24.1607 32.4043C23.9477 32.8305 23.6556 33.1901 23.2557 33.4559C23.1186 33.5469 22.9791 33.6086 22.833 33.4717C22.7704 33.3986 22.7125 33.3203 22.6439 33.2533C22.446 33.0599 22.2434 32.871 22.0427 32.6803ZM23.0417 22.6448C23.058 22.6542 23.0744 22.6637 23.0906 22.673C23.2348 22.98 23.3616 23.2965 23.5269 23.5916C23.8143 24.1047 24.2093 24.5177 24.7534 24.7674C25.3031 25.0196 25.8832 25.0399 26.4754 25.0036C26.6527 24.9927 26.6947 24.9176 26.7184 24.7697C26.7844 24.3571 26.7261 23.952 26.6444 23.5513C26.5621 23.1475 26.4217 22.7657 26.1186 22.4632C26.0708 22.4156 26.0288 22.3294 26.035 22.2658C26.1158 21.4133 26.4595 20.675 27.04 20.0494C27.216 19.8596 27.4234 19.7088 27.7124 19.7736C27.7415 19.5747 27.7001 19.4013 27.6029 19.2399C27.391 18.888 26.9258 18.6865 26.4907 18.7444C25.9848 18.8115 25.5857 19.0635 25.263 19.4438C25.1199 19.6124 24.9985 19.7995 24.8631 19.984C24.817 19.5466 25.0047 18.8665 25.2997 18.4558C25.8722 17.659 26.6181 17.1364 27.624 17.0315C27.5294 16.7469 27.3084 16.5858 27.0687 16.4621C26.4366 16.1361 25.7867 16.081 25.1115 16.4114C25.2604 15.9928 25.5538 15.7464 25.9457 15.5597C25.5148 15.4196 25.1112 15.4185 24.7066 15.4954C24.1208 15.6065 23.5955 15.8578 23.121 16.2161C23.0527 16.2676 23.0044 16.2974 22.9183 16.2316C22.368 15.8106 21.7544 15.5338 21.0605 15.4586C20.7392 15.4239 20.4204 15.4452 20.0727 15.5631C20.4769 15.7466 20.7608 15.9982 20.9001 16.3834C20.7089 16.3267 20.5301 16.2525 20.3441 16.2226C19.7713 16.1305 19.2369 16.2515 18.7579 16.5779C18.5955 16.6885 18.459 16.8372 18.3873 17.039C20.1251 17.1683 21.2922 18.8566 21.1502 19.9797C21.1458 19.9789 21.1389 19.9799 21.1372 19.9772C21.1135 19.9403 21.09 19.9034 21.0674 19.8659C20.8423 19.4934 20.5636 19.1713 20.177 18.9596C19.703 18.7001 19.2183 18.636 18.7303 18.9225C18.4235 19.1025 18.2599 19.4464 18.3172 19.7801C18.5556 19.7096 18.7496 19.8172 18.899 19.9772C19.0991 20.1917 19.2923 20.42 19.4475 20.6679C19.7456 21.1441 19.9353 21.6656 19.9905 22.2302C20.0007 22.3343 19.9769 22.4096 19.8927 22.4869C19.7931 22.5783 19.7107 22.6948 19.6428 22.8133C19.4333 23.179 19.3382 23.5834 19.311 23.9979C19.2918 24.2898 19.3188 24.585 19.3343 24.8782C19.3364 24.9165 19.3886 24.9795 19.4238 24.9842C19.8767 25.0444 20.3324 25.0418 20.7765 24.9392C21.433 24.7876 21.9571 24.417 22.3227 23.8539C22.5409 23.5178 22.7071 23.1477 22.8966 22.7929C22.9451 22.7433 22.9934 22.6941 23.0417 22.6448ZM22.216 32.9594C22.3861 33.1712 22.5672 33.3736 22.833 33.4717C22.7704 33.3986 22.7127 33.3203 22.6441 33.2533C22.446 33.0599 22.2434 32.871 22.0427 32.6803C22.0996 32.774 22.1479 32.8747 22.216 32.9594ZM23.0417 22.6448C23.058 22.6542 23.0742 22.6637 23.0906 22.673C23.2314 22.504 23.3689 22.3322 23.5142 22.1672C23.625 22.0415 23.7738 21.9754 23.9352 21.9415C24.176 21.8909 24.3291 22.0075 24.35 22.2522C24.3548 22.3091 24.3571 22.3662 24.3608 22.4281C24.7139 22.313 24.7835 21.9674 24.9937 21.708C24.5863 21.6003 24.197 21.4769 23.799 21.3987C23.473 21.3347 23.1294 21.2661 22.806 21.3041C22.316 21.3618 21.8365 21.5086 21.3536 21.6218C21.2459 21.647 21.1426 21.6902 21.0393 21.7246C21.2439 21.9687 21.3095 22.3186 21.6615 22.427C21.6637 22.3938 21.666 22.3658 21.6673 22.3378C21.685 21.9618 21.8844 21.8283 22.2255 21.9948C22.4065 22.0832 22.5594 22.2291 22.7248 22.3492C22.8304 22.4477 22.936 22.5462 23.0417 22.6448Z" fill="url(#paint2_linear_2222_1241)"/>
<defs>
<linearGradient id="paint0_linear_2222_1241" x1="0.000604304" y1="19.9992" x2="45.5799" y2="19.9992" gradientUnits="userSpaceOnUse">
<stop stop-color="#D9C48F"/>
<stop offset="1" stop-color="#A97B54"/>
</linearGradient>
<linearGradient id="paint1_linear_2222_1241" x1="22.9786" y1="1.27123" x2="22.6984" y2="8.83515" gradientUnits="userSpaceOnUse">
<stop stop-color="#D9C48F"/>
<stop offset="1" stop-color="#A97B54"/>
</linearGradient>
<linearGradient id="paint2_linear_2222_1241" x1="23.2117" y1="6.08452" x2="22.919" y2="28.3297" gradientUnits="userSpaceOnUse">
<stop stop-color="#D9C48F"/>
<stop offset="1" stop-color="#A97B54"/>
</linearGradient>
</defs>
</svg>
